# xmcd
#
# Track frame offsets:
#   150
#   16241
#   28093
#   47506
#   60267
#
# Disc length: 1041 seconds
#
# Revision: 0
# Processed by: cddbd v1.5.1PL2 Copyright (c) Steve Scherf et al.
# Submitted via: GXTranscoder 2.0.1939
#
DISCID=30040f05
DTITLE=Mattafix - Big city life
DYEAR=2005
DGENRE=Hip Hop
TTITLE0=Walk idiot walk
TTITLE1=Boys don't cry
TTITLE2=Don't Bother
TTITLE3=Let's go
TTITLE4=Big city life
EXTD=
EXTT0=
EXTT1=
EXTT2=
EXTT3=
EXTT4=
PLAYORDER=
